<?xml version="1.0" encoding="UTF-8" standalone="no"?>
<svg
   width="100"
   height="100"
   clip-rule="evenodd"
   fill-rule="evenodd"
   version="1.1"
   xml:space="preserve"
   id="svg25"
   sodipodi:docname="drzewo.svg"
   inkscape:version="1.1 (c68e22c387, 2021-05-23)"
   xmlns:inkscape="http://www.inkscape.org/namespaces/inkscape"
   xmlns:sodipodi="http://sodipodi.sourceforge.net/DTD/sodipodi-0.dtd"
   xmlns="http://www.w3.org/2000/svg"
   xmlns:svg="http://www.w3.org/2000/svg"><defs
   id="defs29" /><sodipodi:namedview
   id="namedview27"
   pagecolor="#ffffff"
   bordercolor="#666666"
   borderopacity="1.0"
   inkscape:pageshadow="2"
   inkscape:pageopacity="0.0"
   inkscape:pagecheckerboard="0"
   showgrid="false"
   inkscape:zoom="5.7204939"
   inkscape:cx="2.9717714"
   inkscape:cy="59.522832"
   inkscape:window-width="1920"
   inkscape:window-height="1017"
   inkscape:window-x="-8"
   inkscape:window-y="-8"
   inkscape:window-maximized="1"
   inkscape:current-layer="g23" />
 <circle
   style="fill:#228b22;fill-rule:evenodd;stroke-width:0.97453"
   id="path525"
   cx="50.174812"
   cy="50.087406"
   r="50" /><g
   id="g23"
   transform="matrix(0.86717145,0,0,0.8311689,1.8162498,1.7808657)"
   style="fill:#ffffff">
  <title
   id="title20">Layer 1</title>
  <path
   stroke="null"
   id="svg_2"
   fill="#000000"
   d="m 48.51718,31.103275 c -1.039462,-0.751298 -1.819065,-1.25217 -2.858527,-1.753035 3.378262,-9.766913 17.15118,-9.766913 20.529443,0 -1.039463,0.500865 -2.078932,1.001737 -2.858528,1.753035 11.174258,-4.257375 20.529444,5.759978 17.411049,13.272982 -2.3388,0.250433 -4.677593,0.751298 -6.756525,2.003469 21.309042,-3.756503 20.789306,22.038157 4.417725,22.038157 h -9.355193 l -9.615061,9.015615 v 13.523419 h 11.693985 c 2.338801,0 2.338801,3.255632 0,3.255632 H 40.46131 c -2.3388,0 -2.3388,-3.255632 0,-3.255632 H 52.155295 V 77.433498 l -9.61506,-9.015615 h -9.095326 c -16.631452,0 -17.411047,-26.0451 4.157866,-22.038157 C 35.783709,45.127555 33.444909,44.62669 30.846249,44.376257 27.727854,36.612813 37.602775,26.8459 48.517166,31.103275 Z m 3.638131,41.822424 v -4.507808 h -4.677593 z m 12.21372,-4.507808 h -4.93746 v 4.507808 z"
   class="fil0"
   style="fill:#ffffff;stroke-width:0.75" />
 </g>

</svg>
