<?xml version="1.0" encoding="UTF-8" standalone="no"?>
<svg
   width="100"
   height="100"
   version="1.1"
   id="svg800"
   sodipodi:docname="głaz narzutowy.svg"
   inkscape:version="1.1 (c68e22c387, 2021-05-23)"
   xmlns:inkscape="http://www.inkscape.org/namespaces/inkscape"
   xmlns:sodipodi="http://sodipodi.sourceforge.net/DTD/sodipodi-0.dtd"
   xmlns="http://www.w3.org/2000/svg"
   xmlns:svg="http://www.w3.org/2000/svg">
  <defs
     id="defs804" />
  <sodipodi:namedview
     id="namedview802"
     pagecolor="#ffffff"
     bordercolor="#666666"
     borderopacity="1.0"
     inkscape:pageshadow="2"
     inkscape:pageopacity="0.0"
     inkscape:pagecheckerboard="0"
     showgrid="false"
     inkscape:zoom="4.16"
     inkscape:cx="7.2115385"
     inkscape:cy="54.447115"
     inkscape:window-width="1920"
     inkscape:window-height="1017"
     inkscape:window-x="-8"
     inkscape:window-y="-8"
     inkscape:window-maximized="1"
     inkscape:current-layer="svg800" />
  <circle
     style="fill:#bc8f8f;stroke-width:1.12744"
     id="path828"
     cx="50"
     cy="50"
     r="50" />
  <g
     id="g798"
     transform="matrix(0.63395967,0,0,0.76044918,17.922517,10.618965)"
     style="fill:#ffffff">
    <title
       id="title794">Layer 1</title>
    <path
       stroke="null"
       d="m 22.1934,55.44342 c -0.35762,-1.35284 -1.07286,-2.36748 -1.90731,-3.0439 -1.07286,-0.84553 -2.14572,-1.86016 -3.09937,-2.87479 -0.47683,-0.50732 -0.83445,-0.84553 -1.31127,-1.18374 -0.83445,-0.50732 -1.7881,-0.50732 -2.50334,0.16911 1.19207,-0.33821 2.50334,0 3.45699,1.18374 0.95365,1.18374 2.02651,2.19837 3.09937,3.0439 0.59603,0.50732 1.19207,1.18374 1.54969,2.02927 0.11921,0.33821 0.23841,0.67642 0.71524,0.67642 M 58.78986,29.23207 h -0.23841 c -0.71524,2.02927 -1.31127,4.22764 -1.7881,6.42601 -0.11921,1.01463 -0.71524,2.02927 -1.43048,2.36748 -0.71524,0.33821 -1.43048,0.84553 -1.90731,1.52195 -1.54969,1.86016 -2.98017,3.88943 -4.52986,5.9187 -0.83445,1.01463 -1.66889,1.86016 -2.74175,2.53658 -1.66889,0.84553 -3.33779,1.69106 -4.88748,2.70569 -0.59603,0.50732 -1.43048,0.67642 -2.14572,0.50732 -1.66889,-0.50732 -3.45699,0.50732 -4.52986,2.53658 -0.11921,0.33821 -0.47683,0.67642 -0.23841,1.01463 0.23841,0.33821 0.35762,-0.16911 0.59603,-0.50732 1.07286,-1.52195 2.62255,-2.19837 4.05303,-1.69106 0.71524,0.33821 1.54969,0.16911 2.26493,-0.33821 0.83445,-0.67642 1.7881,-1.18374 2.74175,-1.69106 1.66889,-0.67642 3.33779,-1.86016 4.76827,-3.38211 1.19207,-1.52195 2.38413,-3.21301 3.5762,-4.90406 0.83445,-1.35284 1.90731,-2.36748 3.09937,-3.0439 0.95365,-0.50732 1.54969,-1.69106 1.7881,-3.0439 0.35762,-1.52195 0.71524,-3.21301 1.07286,-4.73496 0.11921,-0.84553 0.35762,-1.52195 0.47683,-2.19837 M 33.39882,30.4158 c 1.07286,-0.16911 2.14572,-0.50732 3.21858,-1.01463 0.83445,-0.50732 1.66889,-0.67642 2.50334,-0.84553 0.95365,0 1.7881,-0.67642 2.38413,-1.69106 1.07286,-1.69106 2.38413,-3.21301 3.5762,-4.73496 0.83445,-1.01463 1.66889,-2.02927 2.26493,-3.21301 0.11921,-0.16911 0.23841,-0.50732 0.11921,-0.67642 -0.23841,-0.33821 -0.35762,0 -0.47683,0.16911 -1.66889,2.36748 -3.69541,4.22764 -5.3643,6.59512 -0.59603,0.84553 -1.19207,2.02927 -2.14572,2.19837 -1.43048,0.16911 -2.74175,0.67642 -4.05303,1.18374 -1.54969,0.67642 -3.21858,0.67642 -4.76827,0 -2.74175,-1.18374 -5.2451,-2.87479 -7.74844,-4.73496 -2.02651,-1.52195 -4.41065,-2.02927 -6.55637,-1.18374 -0.23841,0 -0.47683,0 -0.47683,0.33821 0,0.50732 0.35762,0.33821 0.47683,0.16911 1.90731,-0.50732 3.93382,-0.16911 5.72192,1.18374 1.54969,1.18374 3.09937,2.53658 4.76827,3.55122 2.02651,1.69106 4.29144,2.53658 6.55637,2.70569 m 28.25199,4.22764 v 5.41138 c 0.11921,2.02927 0.47683,4.22764 1.19207,5.9187 0.59603,1.69106 1.19207,3.38211 1.66889,5.24227 0.11921,0.50732 0,1.18374 -0.35762,1.35284 -2.14572,2.53658 -4.64906,4.56585 -6.91399,6.76422 -1.31127,1.35284 -2.38413,3.0439 -3.21858,4.90406 -0.83445,1.69106 -1.54969,3.38211 -2.38413,5.07317 -0.35762,0.67642 -0.59603,1.52195 -0.71524,2.36748 -0.59603,3.0439 -1.31127,6.0878 -1.90731,9.1317 -0.11921,0.50732 -0.35762,0.67642 -0.71524,0.67642 -3.81461,0 -7.51002,-0.33821 -11.32464,-1.01463 -2.26493,-0.33821 -4.41065,0 -6.55637,1.01463 -2.74175,1.18374 -5.60272,1.86016 -8.46368,2.19837 -2.86096,0.33821 -5.60272,0.67642 -8.46368,1.01463 C 11.46477,84.86779 9.31904,84.36047 7.53094,82.83852 6.69649,82.1621 5.98125,80.97836 5.50443,79.79462 3.83554,75.56698 3.00109,70.66292 3.35871,65.92796 c 0.11921,-1.52195 0.11921,-3.0439 0.23841,-4.56585 0.11921,-2.87479 0.83445,-5.58048 2.02651,-7.94796 1.31127,-2.53658 2.50334,-5.24227 3.45699,-8.11707 0.47683,-1.52195 0.83445,-3.21301 0.95365,-4.90406 0.59603,-5.74959 1.66889,-11.33007 3.09937,-16.57235 0.59603,-2.19837 1.7881,-4.22764 3.21858,-5.41138 3.5762,-3.38211 7.27161,-6.42601 11.32464,-8.79349 3.33779,-1.86016 7.0332,-2.19837 10.49019,-1.01463 3.09937,1.01463 6.07954,2.36748 8.9405,4.05853 3.33779,2.02927 6.55637,4.22764 9.77495,6.76422 3.09937,2.02927 5.00668,6.59512 4.76827,11.33007 v 3.88943"
       id="svg_1"
       style="fill:#ffffff" />
    <path
       stroke="null"
       d="m 73.91625,64.63192 c -0.5027,-2.33468 -2.01081,-3.83555 -3.77026,-3.83555 -0.25135,0 -0.37703,0.16676 -0.37703,0.33353 0,0.16677 0.25135,0.33353 0.37703,0.33353 1.63378,0.33353 3.01621,1.3341 3.77026,3.1685 m 4.02161,16.34276 c 0.75405,-1.3341 0.87973,-3.1685 0.37703,-4.83612 -0.37703,-1.00058 -0.37703,-2.16792 -0.12568,-3.33526 0.25135,-1.3341 0.5027,-2.83497 0.62838,-4.16907 0.37703,-2.66821 1.38243,-5.16965 3.01621,-7.1708 1.13108,-1.16734 2.01081,-2.50144 2.89053,-4.00231 0.12568,-0.16676 0.25135,-0.33353 0.12568,-0.66705 -0.12568,-0.16676 -0.25135,0 -0.37703,0.16676 -1.13108,1.3341 -2.26216,2.50144 -3.26756,4.00231 -1.38243,1.83439 -2.38783,4.00231 -2.76486,6.50375 -0.25135,1.3341 -0.25135,2.66821 -0.5027,3.83555 -0.5027,2.00115 -0.25135,4.16907 0.37703,6.00346 0.12568,0.66705 0.25135,1.3341 0,2.00115 -0.12568,0.66705 -0.25135,1.16734 -0.37703,1.66763 m 2.89053,5.8367 c -5.02702,-0.16676 -9.677,-0.33353 -14.32699,-1.00058 -2.51351,-0.33353 -5.02702,0 -7.54052,-0.16676 -1.63378,-0.16676 -3.26756,-0.50029 -4.90134,-1.3341 -1.0054,-0.50029 -1.88513,-1.3341 -2.63918,-2.33468 -0.62838,-0.83381 -0.75405,-2.16792 -0.37703,-3.33526 0.62838,-2.50144 1.13108,-5.16965 1.75946,-7.67109 0.25135,-0.83381 0.62838,-1.66763 1.13108,-2.33468 1.38243,-2.00115 2.26216,-4.5026 3.51891,-6.67052 0.5027,-0.83381 1.13108,-1.66763 1.88513,-2.50144 2.26216,-2.50144 4.90134,-4.33584 7.03782,-7.00404 1.88513,-2.16792 4.02161,-4.00231 6.15809,-5.33641 1.25675,-0.83381 2.63918,-1.00058 3.89594,-0.50029 0.62838,0.33353 1.25675,0.50029 1.88513,0.83381 1.38243,0.83381 2.76486,1.66763 4.27296,2.33468 1.88513,0.83381 3.64459,2.50144 4.90134,4.5026 1.5081,2.16792 3.01621,4.00231 4.77566,5.8367 1.63378,2.00115 3.01621,4.33584 3.89594,7.1708 0.75405,1.83439 1.25675,3.66878 1.5081,5.66994 0.25135,1.83439 0.25135,3.83555 0.25135,5.66994 -0.12568,2.50144 -1.38243,4.5026 -3.14188,5.16965 -3.64459,1.3341 -7.41485,2.33468 -11.31078,2.83497 -1.0054,0.16676 -2.01081,0.16676 -2.63918,0.16676"
       id="svg_2"
       style="fill:#ffffff" />
  </g>
</svg>
