<?xml version="1.0" encoding="UTF-8" standalone="no"?>
<svg
   width="100"
   height="100"
   version="1.1"
   xml:space="preserve"
   id="svg8"
   sodipodi:docname="krzew.svg"
   inkscape:version="1.1 (c68e22c387, 2021-05-23)"
   xmlns:inkscape="http://www.inkscape.org/namespaces/inkscape"
   xmlns:sodipodi="http://sodipodi.sourceforge.net/DTD/sodipodi-0.dtd"
   xmlns="http://www.w3.org/2000/svg"
   xmlns:svg="http://www.w3.org/2000/svg"><defs
   id="defs12" /><sodipodi:namedview
   id="namedview10"
   pagecolor="#ffffff"
   bordercolor="#666666"
   borderopacity="1.0"
   inkscape:pageshadow="2"
   inkscape:pageopacity="0.0"
   inkscape:pagecheckerboard="0"
   showgrid="false"
   inkscape:zoom="4.16"
   inkscape:cx="48.557692"
   inkscape:cy="65.625"
   inkscape:window-width="1335"
   inkscape:window-height="906"
   inkscape:window-x="565"
   inkscape:window-y="30"
   inkscape:window-maximized="0"
   inkscape:current-layer="svg8" />
 <circle
   style="fill:#8080ff;stroke-width:4.64374;stroke-miterlimit:10;stroke-opacity:0"
   id="path851"
   cx="50"
   cy="50"
   r="50" /><g
   id="g6"
   transform="matrix(0.63829787,0,0,0.64455423,18.085094,13.685767)"
   style="fill:#ffffff">
  <title
   id="title2">Layer 1</title>
  <g
   stroke="null"
   id="svg_1"
   style="fill:#ffffff">
   <path
   stroke="null"
   d="m 95.43332,93.15156 h -13.7574 c 4.22269,0 7.65745,-3.35745 7.65745,-7.48345 0,-2.14168 -0.93633,-4.17238 -2.57034,-5.572 -0.45593,-0.38924 -0.67471,-1.02032 -0.56914,-1.6398 0.10557,-0.61783 0.51866,-1.12137 1.07404,-1.30854 5.52927,-1.87003 9.39089,-7.75509 9.39089,-14.31595 0,-8.24207 -5.92094,-14.94868 -13.19744,-14.94868 -0.86289,0 -1.56362,-0.75696 -1.56667,-1.69115 -0.01836,-6.60723 -4.36345,-12.17593 -10.33029,-13.23931 -0.0767,-0.01366 -0.14535,-0.04845 -0.21793,-0.0737 -2.13383,-0.74846 -4.66672,-0.9795 -6.59345,0.24266 -1.74416,1.10811 -2.85491,3.33923 -3.30012,6.63373 -0.11321,0.84474 -0.78334,1.45098 -1.54755,1.45098 -0.07573,0 -0.15224,-0.005 -0.22873,-0.01822 -0.85678,-0.13583 -1.44888,-0.99713 -1.32342,-1.92303 0.59133,-4.37777 2.21997,-7.43376 4.83927,-9.08515 3.00436,-1.89032 6.42555,-1.31515 8.12418,-0.83833 C 77.69726,21.32209 67.01162,10.88107 60.13715,18.12825 59.16854,19.142 57.58624,18.45781 57.48268,17.0483 56.90436,9.29983 51.24809,3.45618 44.32578,3.45618 c -7.27726,0 -13.19744,6.69502 -13.19744,14.92382 0,0.95573 0.08185,1.89322 0.24251,2.78268 0.1048,0.57973 -0.07649,1.17602 -0.47734,1.5752 -0.40161,0.40085 -0.96541,0.54163 -1.49018,0.38262 -11.44255,-3.53485 -20.74716,10.31223 -14.97956,21.75632 3.25948,-0.18116 13.00418,0.10643 17.43515,9.41809 0.39625,0.83315 0.09332,1.85513 -0.67548,2.28412 -0.22949,0.1292 -0.47505,0.18882 -0.71602,0.18882 -0.56838,0 -1.1161,-0.33457 -1.39456,-0.91928 -4.0848,-8.58679 -14.35093,-7.62403 -15.25198,-7.5232 -6.07642,1.60916 -10.47965,7.94019 -10.47965,15.09277 0,5.6366 2.68126,10.82434 6.99727,13.53745 0.46129,0.28986 0.75428,0.81492 0.77875,1.39135 0.02372,0.57641 -0.22415,1.12633 -0.65941,1.46092 -1.84973,1.41784 -2.91075,3.55456 -2.91075,5.8602 0,4.126 3.43476,7.48345 7.65745,7.48345 H 4.56671 c -0.8652,2e-5 -1.56669,0.75863 -1.56669,1.69614 0,0.93751 0.70149,1.69612 1.56669,1.69612 h 90.86664 c 0.86595,0 1.56667,-0.75862 1.56667,-1.69612 0,-0.9375 -0.70073,-1.69612 -1.56667,-1.69612 z m -60.12649,0 -6.56544,-7.82052 -12.36801,1.15199 c -0.0459,0.005 -0.0918,0.0066 -0.13617,0.0066 -0.80476,0 -1.48942,-0.66752 -1.55903,-1.55036 -0.0742,-0.9342 0.56456,-1.75575 1.42592,-1.83524 L 26.52714,82.13302 16.93639,67.41333 c -0.49877,-0.76523 -0.3297,-1.82365 0.37789,-2.36363 0.70454,-0.53666 1.68448,-0.35777 2.18325,0.40912 L 28.54916,79.35074 31.09311,65.323 c 0.16676,-0.92094 0.98911,-1.51889 1.83977,-1.33834 0.84913,0.18054 1.4022,1.07166 1.23544,1.99094 l -3.09874,17.08373 8.47273,10.09222 H 35.30682 Z M 53.27372,45.32408 c 0,0.2998 -0.07344,0.59463 -0.21342,0.85468 l -6.16718,11.44651 3.12102,2.18371 c 0.44599,0.31306 0.71602,0.84806 0.71602,1.42447 V 93.15156 H 47.5968 V 62.15605 L 36.72567,54.55004 c -0.32665,-0.22858 -0.56303,-0.58139 -0.66324,-0.98885 l -4.098,-16.6746 c -0.2226,-0.90437 0.27463,-1.83359 1.11076,-2.07542 0.83995,-0.23686 1.69444,0.29814 1.91704,1.20418 l 3.94271,16.04187 5.32378,3.72494 5.88164,-10.91688 V 31.55475 c 0,-0.9375 0.70149,-1.69612 1.56669,-1.69612 0.8652,0 1.56667,0.75862 1.56667,1.69612 v 13.76934 h 1e-5 z M 67.75576,81.76531 61.75324,93.15157 H 58.14511 L 64.85963,80.41538 59.6659,60.31417 c -0.23333,-0.90271 0.25321,-1.83856 1.08627,-2.09032 0.82771,-0.2468 1.69978,0.27331 1.9308,1.17602 l 3.80654,14.73252 5.03969,-20.97535 c 0.21878,-0.90769 1.0725,-1.45429 1.91092,-1.21412 0.83689,0.23521 1.33871,1.1611 1.12146,2.06879 L 69.24353,76.14568 79.55843,67.251 c 0.68082,-0.58635 1.66459,-0.46378 2.20161,0.27 0.53855,0.73211 0.42686,1.80046 -0.24938,2.38351 L 67.75574,81.7653 Z"
   id="svg_2"
   style="fill:#ffffff" />
  </g>
 </g>

</svg>
