<?xml version="1.0" encoding="UTF-8" standalone="no"?>
<svg
   width="100"
   height="100"
   version="1.1"
   id="svg9"
   sodipodi:docname="wodospad.svg"
   inkscape:version="1.1 (c68e22c387, 2021-05-23)"
   xmlns:inkscape="http://www.inkscape.org/namespaces/inkscape"
   xmlns:sodipodi="http://sodipodi.sourceforge.net/DTD/sodipodi-0.dtd"
   xmlns="http://www.w3.org/2000/svg"
   xmlns:svg="http://www.w3.org/2000/svg">
  <defs
     id="defs13" />
  <sodipodi:namedview
     id="namedview11"
     pagecolor="#ffffff"
     bordercolor="#666666"
     borderopacity="1.0"
     inkscape:pageshadow="2"
     inkscape:pageopacity="0.0"
     inkscape:pagecheckerboard="0"
     showgrid="false"
     inkscape:zoom="4.16"
     inkscape:cx="35.817308"
     inkscape:cy="63.221154"
     inkscape:window-width="1335"
     inkscape:window-height="1040"
     inkscape:window-x="410"
     inkscape:window-y="0"
     inkscape:window-maximized="0"
     inkscape:current-layer="svg9" />
  <circle
     style="fill:#2a2aff;stroke-width:4.32;stroke-miterlimit:10;stroke-opacity:0"
     id="path852"
     cx="50"
     cy="50"
     r="50" />
  <g
     id="g7"
     transform="matrix(0.63532267,0,0,0.63924743,18.233867,18.037625)"
     style="fill:#ffffff">
    <title
       id="title2">Layer 1</title>
    <g
       stroke="null"
       id="svg_1"
       display="inline"
       style="fill:#ffffff">
      <path
         stroke="null"
         id="svg_2"
         clip-rule="nonzero"
         fill="#000000"
         fill-rule="nonzero"
         stroke-width="2.75128"
         stroke-miterlimit="4"
         stroke-dashoffset="0"
         d="m 49.9934,68.20101 c -8.42723,0.0018 -16.01405,3.39305 -19.7241,8.30991 l -1.96448,2.60502 -3.42626,-0.98399 C 22.9468,77.5748 20.85955,77.27601 18.74701,77.2731 9.46826,77.27572 2.77986,82.52221 2.7799,88.17096 c 3e-5,2.82515 1.27718,4.57262 3.98849,6.14283 2.71122,1.57021 7.00572,2.61611 11.98526,2.6164 h 62.4927 c 4.97933,0 9.27408,-1.04616 11.98526,-2.6164 2.71125,-1.57024 3.98846,-3.31768 3.98849,-6.14283 3e-5,-5.65018 -6.69128,-10.89769 -15.97375,-10.89786 -2.11481,0 -4.21641,0.29867 -6.158,0.85885 l -3.41962,0.98399 -1.97108,-2.60502 C 65.9919,71.59912 58.41856,68.20975 50,68.20101 h -0.0068 z"
         style="fill:#ffffff" />
      <path
         stroke="null"
         id="svg_3"
         clip-rule="nonzero"
         fill="#000000"
         fill-rule="nonzero"
         stroke-width="50"
         stroke-miterlimit="4"
         stroke-dashoffset="0"
         d="m 33.28544,3.06982 h -13.5593 l -1.7e-4,3e-5 v 66.2858 c 1.63287,0.11532 3.22994,0.42879 4.8351,0.71665 4.4854,-4.64956 10.85733,-7.88666 18.03082,-9.21425 1.19624,-0.22103 2.4153,-0.38775 3.65112,-0.50054 C 47.4787,60.24452 48.73471,60.18686 50,60.18686 h 0.0068 c 2.52817,0.0021 5.00585,0.23326 7.3949,0.67684 2.38888,0.44285 4.68884,1.09669 6.85912,1.94524 2.17025,0.84855 4.2134,1.89413 6.08522,3.11124 0.93727,0.60975 1.82475,1.2614 2.67224,1.95662 0.84512,0.69327 1.64855,1.4276 2.3944,2.20119 1.61272,-0.28976 3.21819,-0.60713 4.86155,-0.72236 V 3.06983 H 66.70809 v 4.1521 c 0,5.34274 -9.31966,5.34274 -9.31966,0 V 3.06983 H 42.61667 c -0.0017,8.81992 0.0034,17.63981 0,26.45972 -0.002,5.34274 -9.32826,5.34274 -9.33124,0 m 28.69335,-3.22499 c 2.6256,-0.03419 4.76537,1.80327 4.72927,4.06113 v 16.11357 c 0,5.34277 -9.31966,5.34277 -9.31966,0 V 30.36569 c -0.03536,-2.21106 2.01917,-4.02868 4.59039,-4.06113 z M 37.88259,41.07583 c 2.6256,-0.03419 4.76537,1.80327 4.72927,4.0611 v 3.44113 c 0,5.34277 -9.31966,5.34277 -9.31966,0 v -3.44113 c -0.03532,-2.21106 2.01917,-4.02866 4.59039,-4.0611 z"
         style="fill:#ffffff" />
    </g>
  </g>
</svg>
