<?xml version="1.0" encoding="UTF-8" standalone="no"?>
<svg
   width="100"
   height="100"
   version="1.1"
   id="svg10"
   sodipodi:docname="źródło.svg"
   inkscape:version="1.1 (c68e22c387, 2021-05-23)"
   xmlns:inkscape="http://www.inkscape.org/namespaces/inkscape"
   xmlns:sodipodi="http://sodipodi.sourceforge.net/DTD/sodipodi-0.dtd"
   xmlns="http://www.w3.org/2000/svg"
   xmlns:svg="http://www.w3.org/2000/svg">
  <defs
     id="defs14" />
  <sodipodi:namedview
     id="namedview12"
     pagecolor="#ffffff"
     bordercolor="#666666"
     borderopacity="1.0"
     inkscape:pageshadow="2"
     inkscape:pageopacity="0.0"
     inkscape:pagecheckerboard="0"
     showgrid="false"
     inkscape:zoom="4.16"
     inkscape:cx="44.711538"
     inkscape:cy="53.365385"
     inkscape:window-width="1175"
     inkscape:window-height="880"
     inkscape:window-x="578"
     inkscape:window-y="121"
     inkscape:window-maximized="0"
     inkscape:current-layer="svg10" />
  <circle
     style="fill:#216778;stroke-width:4.32;stroke-miterlimit:10;stroke-opacity:0"
     id="path853"
     cx="50"
     cy="50"
     r="50" />
  <g
     id="g1068">
    <g
       id="g1059">
      <g
         id="g8"
         style="fill:#ffffff"
         transform="matrix(0.78525565,0,0,0.80406598,10.737217,9.7967126)">
        <title
           id="title2">Layer 1</title>
        <g
           id="svg_1"
           style="fill:#ffffff">
          <path
             id="svg_2"
             overflow="visible"
             display="inline"
             visibility="visible"
             marker="none"
             fill-rule="evenodd"
             fill="#000000"
             d="m 18.4708,54.13522 c -0.2569,0 -0.5129,0.058 -0.7496,0.1576 -0.2366,0.1 -0.4537,0.2461 -0.6354,0.4277 l -10.5,10.5 c -0.1895,0.1841 -0.3419,0.4062 -0.4457,0.6492 -0.1037,0.243 -0.1586,0.5067 -0.1605,0.7709 -0.0019,0.2642 0.0492,0.5287 0.1495,0.7732 0.1002,0.2444 0.2495,0.4687 0.4363,0.6555 0.1868,0.1868 0.4111,0.3361 0.6555,0.4363 0.2445,0.1003 0.5089,0.1514 0.7732,0.1495 0.2642,0 0.5279,-0.057 0.7709,-0.1605 0.243,-0.1037 0.4651,-0.2562 0.6492,-0.4457 l 9.0859,-9.0859 8.8553,8.8556 c 0.1848,0.2577 0.4318,0.4705 0.714,0.615 0.2823,0.1445 0.5993,0.2205 0.9164,0.2197 0.0164,5e-4 0.0329,8e-4 0.0493,9e-4 0.005,-2e-4 0.009,-4e-4 0.0135,-6e-4 0.3106,0 0.6198,-0.083 0.8951,-0.227 0.2753,-0.1438 0.5163,-0.3527 0.6977,-0.6048 l 8.8587,-8.8588 8.8553,8.8556 c 0.1848,0.2577 0.4318,0.4705 0.714,0.615 0.2823,0.1445 0.5993,0.2205 0.9164,0.2197 0.0164,5e-4 0.0329,8e-4 0.0493,9e-4 0.005,-2e-4 0.009,-4e-4 0.0135,-6e-4 0.3106,0 0.6198,-0.083 0.8951,-0.227 0.2753,-0.1438 0.5163,-0.3527 0.6977,-0.6049 l 8.8587,-8.8587 8.8553,8.8556 c 0.1848,0.2577 0.4318,0.4704 0.714,0.6149 0.2823,0.1446 0.5993,0.2206 0.9164,0.2198 0.0164,5e-4 0.0329,8e-4 0.0493,9e-4 0.005,-2e-4 0.009,-4e-4 0.0135,-6e-4 0.3106,0 0.6198,-0.083 0.8951,-0.227 0.2753,-0.1438 0.5163,-0.3527 0.6977,-0.6049 l 8.8587,-8.8587 9.0857,9.0859 c 0.1841,0.1895 0.4062,0.3419 0.6492,0.4457 0.243,0.1037 0.5067,0.1586 0.7709,0.1605 0.2643,0 0.5287,-0.049 0.7732,-0.1495 0.2444,-0.1002 0.4687,-0.2495 0.6555,-0.4363 0.1868,-0.1868 0.3361,-0.4111 0.4363,-0.6555 0.1003,-0.2445 0.1514,-0.509 0.1495,-0.7732 -0.002,-0.2642 -0.0568,-0.5279 -0.1605,-0.7709 -0.1038,-0.243 -0.2562,-0.4651 -0.4457,-0.6492 l -10.5,-10.5 c -0.1851,-0.1851 -0.407,-0.3333 -0.6489,-0.4335 -0.2418,-0.1002 -0.5035,-0.1522 -0.7653,-0.1522 -0.2618,0 -0.5235,0.052 -0.7653,0.1522 -0.2419,0.1002 -0.4638,0.2484 -0.6489,0.4335 l -9.0857,9.0856 -9.0859,-9.0856 c -0.1851,-0.1851 -0.407,-0.3333 -0.6489,-0.4335 -0.2418,-0.1002 -0.5035,-0.1522 -0.7653,-0.1522 -0.2618,0 -0.5235,0.052 -0.7653,0.1522 -0.2419,0.1002 -0.4638,0.2484 -0.6489,0.4335 l -9.0857,9.0856 -9.0859,-9.0856 c -0.1851,-0.1851 -0.407,-0.3333 -0.6489,-0.4335 -0.2418,-0.1002 -0.5035,-0.1522 -0.7653,-0.1522 -0.2618,0 -0.5235,0.052 -0.7653,0.1522 -0.2419,0.1002 -0.4638,0.2484 -0.6489,0.4335 l -9.0857,9.0856 -9.0859,-9.0856 c -0.1886,-0.1885 -0.4153,-0.3387 -0.6624,-0.4389 -0.2471,-0.1002 -0.5144,-0.1503 -0.781,-0.1464 z"
             style="fill:#ffffff" />
          <path
             id="svg_3"
             overflow="visible"
             display="inline"
             visibility="visible"
             marker="none"
             fill-rule="evenodd"
             fill="#000000"
             d="m 18.4708,42.74521 c -0.2569,0.004 -0.5129,0.0575 -0.7496,0.15756 -0.2366,0.10001 -0.4537,0.24613 -0.6354,0.42775 l -10.5,10.5 c -0.1895,0.1841 -0.3419,0.4062 -0.4457,0.6492 -0.1037,0.243 -0.1586,0.5067 -0.1605,0.7709 -0.0019,0.2642 0.0492,0.5287 0.1495,0.7732 0.1002,0.2444 0.2495,0.4687 0.4363,0.6555 0.1868,0.1868 0.4111,0.3361 0.6555,0.4363 0.2445,0.1003 0.5089,0.1514 0.7732,0.1495 0.2642,0 0.5279,-0.057 0.7709,-0.1605 0.243,-0.1037 0.4651,-0.2562 0.6492,-0.4457 l 9.0859,-9.0859 8.8553,8.8556 c 0.1848,0.2577 0.4318,0.4705 0.714,0.615 0.2823,0.1445 0.5993,0.2205 0.9164,0.2197 0.0164,5e-4 0.0329,8e-4 0.0493,9e-4 0.005,-2e-4 0.009,-4e-4 0.0135,-6e-4 0.3106,0 0.6198,-0.083 0.8951,-0.227 0.2753,-0.1438 0.5163,-0.3527 0.6977,-0.6048 l 8.8587,-8.85881 8.8553,8.85561 c 0.1848,0.2577 0.4318,0.4705 0.714,0.615 0.2823,0.1445 0.5993,0.2205 0.9164,0.2197 0.0164,5e-4 0.0329,8e-4 0.0493,9e-4 0.005,-2e-4 0.009,-4e-4 0.0135,-6e-4 0.3106,0 0.6198,-0.083 0.8951,-0.227 0.2753,-0.1438 0.5163,-0.3527 0.6977,-0.6049 l 8.8587,-8.85872 8.8553,8.85562 c 0.1848,0.2577 0.4318,0.4704 0.714,0.6149 0.2823,0.1446 0.5993,0.2206 0.9164,0.2198 0.0164,5e-4 0.0329,8e-4 0.0493,9e-4 0.005,-2e-4 0.009,-4e-4 0.0135,-6e-4 0.3106,0 0.6198,-0.083 0.8951,-0.227 0.2753,-0.1438 0.5163,-0.3527 0.6977,-0.6049 l 8.8587,-8.85873 9.0857,9.08593 c 0.1841,0.1895 0.4062,0.3419 0.6492,0.4457 0.243,0.1037 0.5067,0.1586 0.7709,0.1605 0.2643,0 0.5287,-0.049 0.7732,-0.1495 0.2444,-0.1002 0.4687,-0.2495 0.6555,-0.4363 0.1868,-0.1868 0.3361,-0.4111 0.4363,-0.6555 0.1003,-0.2445 0.1514,-0.509 0.1495,-0.7732 -0.002,-0.2642 -0.0568,-0.5279 -0.1605,-0.7709 -0.1038,-0.243 -0.2562,-0.4651 -0.4457,-0.6492 l -10.5,-10.50003 C 82.7291,43.1454 82.5072,42.99718 82.2653,42.89701 82.0235,42.79685 81.7618,42.7448 81.5,42.7448 c -0.2618,0 -0.5235,0.0521 -0.7653,0.15221 -0.2419,0.10017 -0.4638,0.24839 -0.6489,0.43348 l -9.0857,9.08563 -9.0859,-9.08563 C 61.7291,43.1454 61.5072,42.99718 61.2653,42.89701 61.0235,42.79685 60.7618,42.7448 60.5,42.7448 c -0.2618,0 -0.5235,0.0521 -0.7653,0.15221 -0.2419,0.10017 -0.4638,0.24839 -0.6489,0.43348 l -9.0857,9.08563 -9.0859,-9.08563 C 40.7291,43.1454 40.5072,42.99718 40.2653,42.89701 40.0235,42.79685 39.7618,42.7448 39.5,42.7448 c -0.2618,0 -0.5235,0.0521 -0.7653,0.15221 -0.2419,0.10017 -0.4638,0.24839 -0.6489,0.43348 l -9.0857,9.08563 -9.0859,-9.08563 c -0.1886,-0.1885 -0.4153,-0.33872 -0.6624,-0.43892 -0.2471,-0.1002 -0.5144,-0.1503 -0.781,-0.14639 z"
             style="fill:#ffffff" />
          <path
             id="svg_4"
             overflow="visible"
             display="inline"
             visibility="visible"
             marker="none"
             fill-rule="evenodd"
             fill="#000000"
             d="m 18.4708,31.34521 c -0.2569,0.004 -0.5129,0.0575 -0.7496,0.15756 -0.2366,0.10001 -0.4537,0.24613 -0.6354,0.42775 l -10.5,10.5 c -0.1895,0.18413 -0.3419,0.40621 -0.4457,0.64921 -0.1037,0.243 -0.1586,0.50672 -0.1605,0.77093 -0.0019,0.2642 0.0492,0.52868 0.1495,0.77314 0.1002,0.24446 0.2495,0.46871 0.4363,0.65553 0.1868,0.18683 0.4111,0.33609 0.6555,0.43633 0.2445,0.10023 0.5089,0.15137 0.7732,0.14948 0.2642,-0.002 0.5279,-0.0568 0.7709,-0.16053 0.243,-0.10372 0.4651,-0.25617 0.6492,-0.44565 l 9.0859,-9.08594 8.8553,8.85563 c 0.1848,0.2577 0.4318,0.47043 0.714,0.61493 0.2823,0.14451 0.5993,0.22053 0.9164,0.21976 0.0164,5e-4 0.0329,8e-4 0.0493,9e-4 0.005,-2e-4 0.009,-4e-4 0.0135,-6e-4 0.3106,-0.005 0.6198,-0.0832 0.8951,-0.227 0.2753,-0.14379 0.5163,-0.35273 0.6977,-0.60487 l 8.8587,-8.85876 8.8553,8.85563 c 0.1848,0.2577 0.4318,0.47043 0.714,0.61493 0.2823,0.14451 0.5993,0.22053 0.9164,0.21976 0.0164,5e-4 0.0329,8e-4 0.0493,9e-4 0.005,-2e-4 0.009,-4e-4 0.0135,-6e-4 0.3106,-0.005 0.6198,-0.0832 0.8951,-0.227 0.2753,-0.14379 0.5163,-0.35273 0.6977,-0.60487 l 8.8587,-8.85876 8.8553,8.85563 c 0.1848,0.2577 0.4318,0.47043 0.714,0.61493 0.2823,0.14451 0.5993,0.22053 0.9164,0.21976 0.0164,5e-4 0.0329,8e-4 0.0493,9e-4 0.005,-2e-4 0.009,-4e-4 0.0135,-6e-4 0.3106,-0.005 0.6198,-0.0832 0.8951,-0.227 0.2753,-0.14379 0.5163,-0.35273 0.6977,-0.60487 l 8.8587,-8.85876 9.0857,9.08594 c 0.1841,0.18948 0.4062,0.34193 0.6492,0.44565 0.243,0.10373 0.5067,0.15864 0.7709,0.16053 0.2643,0.002 0.5287,-0.0492 0.7732,-0.14948 0.2444,-0.10024 0.4687,-0.2495 0.6555,-0.43633 0.1868,-0.18682 0.3361,-0.41107 0.4363,-0.65553 0.1003,-0.24446 0.1514,-0.50894 0.1495,-0.77314 -0.002,-0.26421 -0.0568,-0.52793 -0.1605,-0.77093 -0.1038,-0.243 -0.2562,-0.46508 -0.4457,-0.64921 l -10.5,-10.5 C 82.7291,31.7454 82.5072,31.59718 82.2653,31.49701 82.0235,31.39685 81.7618,31.3448 81.5,31.3448 c -0.2618,0 -0.5235,0.0521 -0.7653,0.15221 -0.2419,0.10017 -0.4638,0.24839 -0.6489,0.43348 l -9.0857,9.08563 -9.0859,-9.08563 C 61.7291,31.7454 61.5072,31.59718 61.2653,31.49701 61.0235,31.39685 60.7618,31.3448 60.5,31.3448 c -0.2618,0 -0.5235,0.0521 -0.7653,0.15221 -0.2419,0.10017 -0.4638,0.24839 -0.6489,0.43348 l -9.0857,9.08563 -9.0859,-9.08563 C 40.7291,31.7454 40.5072,31.59718 40.2653,31.49701 40.0235,31.39685 39.7618,31.3448 39.5,31.3448 c -0.2618,0 -0.5235,0.0521 -0.7653,0.15221 -0.2419,0.10017 -0.4638,0.24839 -0.6489,0.43348 l -9.0857,9.08563 -9.0859,-9.08563 c -0.1886,-0.1885 -0.4153,-0.33872 -0.6624,-0.43892 -0.2471,-0.1002 -0.5144,-0.1503 -0.781,-0.14639 z"
             style="fill:#ffffff" />
        </g>
      </g>
    </g>
  </g>
</svg>
