<?xml version="1.0" encoding="UTF-8"?>
<svg id="mdi-filter-remove" width="24" height="24" version="1.1" viewBox="0 0 24 24" xmlns="http://www.w3.org/2000/svg">
 <path d="m14.342 21.49 3.1074-3.2713-3.1074-3.2713 1.5427-1.6299 3.0964 3.2481 3.0964-3.2481 1.5427 1.6299-3.0745 3.2713 3.0745 3.2713-1.5427 1.6299-3.0964-3.2828-3.0964 3.2828-1.5427-1.6299m-3.0198-10.207v9.1087c0.04376 0.34678-0.06565 0.71667-0.3173 0.95942-0.42672 0.45081-1.116 0.45081-1.5427 0l-2.1992-2.3234c-0.25165-0.26586-0.36107-0.6242-0.3173-0.95942v-6.7853h-0.032824l-6.3023-8.5307c-0.37201-0.49705-0.28448-1.2253 0.186-1.6183 0.20789-0.16183 0.43766-0.2543 0.67837-0.2543h15.318c0.24071 0 0.47048 0.092474 0.67837 0.2543 0.47048 0.39301 0.55801 1.1212 0.186 1.6183l-6.3023 8.5307z" stroke-width="1.1246"/>
</svg>
