<?xml version="1.0" encoding="UTF-8" standalone="no"?>
<svg
   version="1.1"
   x="0px"
   y="0px"
   viewBox="0 0 100 100"
   xml:space="preserve"
   id="svg12"
   sodipodi:docname="legend.svg"
   width="100"
   height="100"
   inkscape:version="1.1 (c68e22c387, 2021-05-23)"
   xmlns:inkscape="http://www.inkscape.org/namespaces/inkscape"
   xmlns:sodipodi="http://sodipodi.sourceforge.net/DTD/sodipodi-0.dtd"
   xmlns="http://www.w3.org/2000/svg"
   xmlns:svg="http://www.w3.org/2000/svg"><defs
     id="defs16" /><sodipodi:namedview
     id="namedview14"
     pagecolor="#ffffff"
     bordercolor="#666666"
     borderopacity="1.0"
     inkscape:pageshadow="2"
     inkscape:pageopacity="0.0"
     inkscape:pagecheckerboard="0"
     showgrid="false"
     height="100px"
     inkscape:zoom="3.328"
     inkscape:cx="32.451923"
     inkscape:cy="84.435096"
     inkscape:window-width="1335"
     inkscape:window-height="1040"
     inkscape:window-x="256"
     inkscape:window-y="9"
     inkscape:window-maximized="0"
     inkscape:current-layer="svg12" /><g
     id="g6"><path
       d="m 49.4,15 c -5.737797,-0.185966 -10.642383,5.5474 -9.586868,11.187109 0.702281,5.679028 7.07907,9.653094 12.487259,7.7719 5.475218,-1.539484 8.490046,-8.385328 5.833334,-13.439444 C 56.562025,17.230527 53.061941,14.965939 49.4,15 Z"
       id="path2" /><path
       d="m 64.3,72.2 c -1.534084,-0.05152 -3.089956,0.106812 -4.609375,-0.08594 C 58.64697,71.296235 59.269533,69.767976 59.1,68.603719 c 0,-9.00124 0,-18.002479 0,-27.003719 -0.29132,-1.553156 -2.169953,-0.835701 -3.290837,-1 -6.703054,0 -13.406109,0 -20.109163,0 -1.553156,0.29132 -0.835701,2.169953 -1,3.290837 0.04569,1.823343 -0.09289,3.664551 0.07187,5.476351 0.779353,1.092621 2.353958,0.492336 3.523766,0.690493 1.082139,0.07036 3.01248,-0.321975 2.904359,1.347764 0,6.564852 0,13.129703 0,19.694555 -0.29132,1.553156 -2.169953,0.835701 -3.290837,1 C 36.825605,72.14753 34.857486,71.704658 35,73.405445 35,76.936963 35,80.468482 35,84 c 0.29132,1.553156 2.169953,0.835701 3.290837,1 8.636387,0 17.272775,0 25.909163,0 1.553156,-0.29132 0.835701,-2.169953 1,-3.290837 -0.01809,-2.972547 0.03661,-5.947591 -0.02813,-8.918538 C 65.052373,72.426495 64.671601,72.198353 64.3,72.2 Z"
       id="path4" /></g></svg>
