<?xml version="1.0" encoding="UTF-8"?>
<!-- Created with Inkscape (http://www.inkscape.org/) -->
<svg width="26.458mm" height="26.458mm" version="1.1" viewBox="0 0 26.458 26.458" xmlns="http://www.w3.org/2000/svg">
 <g stroke-miterlimit="10" stroke-opacity="0">
  <path d="m13.229 0-3.8747 3.8747h-5.4798v5.4798l-3.8747 3.8747 3.8747 3.8747v5.4798h5.4798l3.8747 3.8747 3.8747-3.8747h5.4798v-5.4798l3.8747-3.8747-3.8747-3.8747v-5.4798h-5.4798zm0 6.4704a6.7586 6.7586 0 0 1 6.7588 6.7588 6.7586 6.7586 0 0 1-6.7588 6.7588 6.7586 6.7586 0 0 1-6.7588-6.7588 6.7586 6.7586 0 0 1 6.7588-6.7588z"/>
  <ellipse cx="13.229" cy="13.229" rx="4.6964" ry="4.6964" />
 </g>
</svg>
